<svg width="36" height="42" viewBox="0 0 36 42" fill="none" xmlns="http://www.w3.org/2000/svg">
<path d="M9.91363 42C1.30849 37.1502 -0.95706 32.5597 0.33822 26.2902C1.29446 21.6607 4.42559 17.8942 4.72582 13.2736C6.06335 15.7076 6.62223 17.4628 6.77168 20.0063C11.0257 14.7943 13.8368 7.57911 14.0033 0C14.0033 0 25.0834 6.51035 25.8105 16.3443C26.7643 14.3173 27.2445 11.0981 26.2906 9.01166C29.1521 11.0982 45.9009 29.621 24.022 42C28.1354 33.9907 25.0832 23.1836 17.9411 18.1924C18.4181 20.3385 17.5818 28.3431 14.4222 31.8604C15.2976 25.9833 13.5892 23.4983 13.5892 23.4983C13.5892 23.4983 13.0028 26.7902 10.7276 30.1155C8.65002 33.1522 7.21047 36.3752 9.91363 42Z" fill="#3FAF38"/>
</svg>
