<svg width="41" height="46" viewBox="0 0 41 46" fill="none" xmlns="http://www.w3.org/2000/svg">
<path fill-rule="evenodd" clip-rule="evenodd" d="M20.2412 0C18.2483 0 14.9127 0.749605 11.7728 1.58049C8.97214 2.33245 6.1897 3.15053 3.42775 4.03402C2.63922 4.28237 1.93714 4.74894 1.40277 5.37974C0.868399 6.01055 0.523592 6.77978 0.408259 7.59841C-1.31674 20.2333 2.68417 29.5959 7.53704 35.7914C9.60289 38.45 12.0556 40.784 14.8133 42.7155C15.9302 43.4862 16.9658 44.0732 17.8449 44.4796C18.6577 44.8529 19.5247 45.157 20.2412 45.157C20.9577 45.157 21.8277 44.8529 22.6375 44.4796C23.5166 44.0732 24.5522 43.4862 25.6691 42.7155C28.4279 40.7842 30.8816 38.4503 32.9484 35.7914C37.7982 29.5959 41.7991 20.2333 40.0741 7.59841C39.9588 6.77978 39.614 6.01055 39.0796 5.37974C38.5453 4.74894 37.8432 4.28237 37.0546 4.03402C34.2927 3.1505 31.5103 2.33243 28.7096 1.58049C25.5697 0.749605 22.2371 0 20.2412 0ZM28.8331 19.1285C29.1157 18.8458 29.2745 18.4625 29.2745 18.0628C29.2745 17.6631 29.1157 17.2797 28.8331 16.9971C28.5504 16.7144 28.1671 16.5557 27.7674 16.5557C27.3676 16.5557 26.9843 16.7144 26.7017 16.9971L18.736 24.9658L15.286 21.5128C15.146 21.3728 14.9799 21.2618 14.797 21.1861C14.6142 21.1103 14.4182 21.0713 14.2203 21.0713C14.0224 21.0713 13.8264 21.1103 13.6435 21.1861C13.4607 21.2618 13.2945 21.3728 13.1546 21.5128C13.0146 21.6527 12.9036 21.8189 12.8279 22.0017C12.7521 22.1846 12.7131 22.3806 12.7131 22.5785C12.7131 22.7764 12.7521 22.9724 12.8279 23.1552C12.9036 23.3381 13.0146 23.5042 13.1546 23.6442L17.6703 28.1599C17.8101 28.3001 17.9762 28.4113 18.1591 28.4872C18.3419 28.563 18.538 28.6021 18.736 28.6021C18.934 28.6021 19.13 28.563 19.3129 28.4872C19.4957 28.4113 19.6618 28.3001 19.8017 28.1599L28.8331 19.1285Z" fill="#3FAF38"/>
</svg>
