<svg width="31" height="48" viewBox="0 0 31 48" fill="none" xmlns="http://www.w3.org/2000/svg">
<path d="M6.54558 20.1931V8.72745C6.54558 6.41278 7.46508 4.19292 9.10179 2.55621C10.7385 0.919496 12.9584 0 15.273 0C17.5877 0 19.8076 0.919496 21.4443 2.55621C23.081 4.19292 24.0005 6.41278 24.0005 8.72745V20.1931C26.6689 22.0512 28.6746 24.7123 29.7258 27.7892C30.7771 30.8661 30.8189 34.1982 29.8452 37.3006C28.8715 40.4029 26.9331 43.1135 24.3122 45.0379C21.6913 46.9623 18.5246 48 15.273 48C12.0215 48 8.8548 46.9623 6.23388 45.0379C3.61295 43.1135 1.67457 40.4029 0.700879 37.3006C-0.272815 34.1982 -0.23101 30.8661 0.820211 27.7892C1.87143 24.7123 3.8772 22.0512 6.54558 20.1931ZM6.54558 32.7279C6.54558 35.0426 7.46508 37.2624 9.10179 38.8992C10.7385 40.5359 12.9584 41.4554 15.273 41.4554C17.5877 41.4554 19.8076 40.5359 21.4443 38.8992C23.081 37.2624 24.0005 35.0426 24.0005 32.7279H6.54558Z" fill="#3FAF38"/>
</svg>
