<svg width="43" height="42" viewBox="0 0 43 42" fill="none" xmlns="http://www.w3.org/2000/svg">
<path d="M21.5972 42C18.7534 42 16.0327 41.4463 13.4351 40.3389C10.8374 39.2314 8.60205 37.7412 6.729 35.8682C4.85596 33.9951 3.36572 31.7598 2.2583 29.1621C1.15088 26.5645 0.597168 23.8438 0.597168 21C0.597168 18.1562 1.15088 15.4355 2.2583 12.8379C3.36572 10.2402 4.85596 8.00488 6.729 6.13184C8.60205 4.25879 10.8374 2.76855 13.4351 1.66113C16.0327 0.553711 18.7534 0 21.5972 0C24.4409 0 27.1616 0.553711 29.7593 1.66113C32.3569 2.76855 34.5923 4.25879 36.4653 6.13184C38.3384 8.00488 39.8286 10.2402 40.936 12.8379C42.0435 15.4355 42.5972 18.1562 42.5972 21C42.5972 23.8438 42.0435 26.5645 40.936 29.1621C39.8286 31.7598 38.3384 33.9951 36.4653 35.8682C34.5923 37.7412 32.3569 39.2314 29.7593 40.3389C27.1616 41.4463 24.4409 42 21.5972 42ZM8.59521 7.99805L21.5972 21V2.625C19.1089 2.625 16.7437 3.09668 14.5015 4.04004C12.2593 4.9834 10.2905 6.30273 8.59521 7.99805Z" fill="#3FAF38"/>
</svg>
