<svg width="45" height="45" viewBox="0 0 45 45" fill="none" xmlns="http://www.w3.org/2000/svg">
<path d="M45 25V20L38 17.5C37.5 16.5 37.5 16 37 15L40 8.5L36.5 5L30 8C29 7.5 28.5 7.5 27.5 7L25 0H20L17.5 7C16.5 7.5 16 7.5 15 8L8.5 5L5 8.5L8 15C7.5 16 7.5 16.5 7 17.5L0 20V25L7 27.5C7.5 28.5 7.5 29 8 30L5 36.5L8.5 40L15 37C16 37.5 16.5 38 17.5 38L20 45H25L27.5 38C28.5 37.5 29 37.5 30 37L36.5 40L40 36.5L37 30C37.5 29 38 28.5 38 27.5L45 25ZM22.5 30C18.5 30 15 26.5 15 22.5C15 18.5 18.5 15 22.5 15C26.5 15 30 18.5 30 22.5C30 26.5 26.5 30 22.5 30Z" fill="#3FAF38"/>
</svg>
