<svg width="27" height="27" viewBox="0 0 27 27" fill="none" xmlns="http://www.w3.org/2000/svg">
<path fill-rule="evenodd" clip-rule="evenodd" d="M1.00489 11.9857C1.1749 11.8152 1.37686 11.68 1.5992 11.5878C1.82154 11.4955 2.0599 11.448 2.30063 11.448C2.54136 11.448 2.77972 11.4955 3.00206 11.5878C3.22441 11.68 3.42636 11.8152 3.59637 11.9857L13.2814 21.6744L22.9665 11.9857C23.3102 11.642 23.7763 11.449 24.2623 11.449C24.7483 11.449 25.2144 11.642 25.558 11.9857C25.9017 12.3293 26.0947 12.7954 26.0947 13.2814C26.0947 13.7674 25.9017 14.2335 25.558 14.5771L14.5772 25.558C14.4072 25.7284 14.2052 25.8636 13.9829 25.9559C13.7605 26.0481 13.5222 26.0956 13.2814 26.0956C13.0407 26.0956 12.8024 26.0481 12.58 25.9559C12.3577 25.8636 12.1557 25.7284 11.9857 25.558L1.00489 14.5771C0.83446 14.4071 0.699239 14.2052 0.606976 13.9828C0.514714 13.7605 0.467224 13.5221 0.467224 13.2814C0.467224 13.0407 0.514714 12.8023 0.606976 12.58C0.699239 12.3576 0.83446 12.1557 1.00489 11.9857Z" fill="white"/>
<path fill-rule="evenodd" clip-rule="evenodd" d="M13.2819 0.471191C13.7673 0.471191 14.2328 0.664009 14.576 1.00723C14.9192 1.35044 15.1121 1.81595 15.1121 2.30133V20.6027C15.1121 21.0881 14.9192 21.5536 14.576 21.8968C14.2328 22.24 13.7673 22.4328 13.2819 22.4328C12.7965 22.4328 12.331 22.24 11.9878 21.8968C11.6446 21.5536 11.4518 21.0881 11.4518 20.6027V2.30133C11.4518 1.81595 11.6446 1.35044 11.9878 1.00723C12.331 0.664009 12.7965 0.471191 13.2819 0.471191Z" fill="white"/>
</svg>
