<svg width="49" height="50" viewBox="0 0 49 50" fill="none" xmlns="http://www.w3.org/2000/svg">
<rect x="0.646606" y="0.815948" width="47.6143" height="49.0111" rx="11.977" fill="url(#paint0_linear_3000_514)"/>
<path d="M24.7755 15.0094C19.7279 15.0094 15.6543 19.2214 15.6543 24.4404C15.6543 29.6595 19.7279 33.8715 24.7755 33.8715C29.8231 33.8715 33.8967 29.6595 33.8967 24.4404C33.8967 19.2214 29.8231 15.0094 24.7755 15.0094ZM24.7755 30.57C21.5112 30.57 18.8473 27.8156 18.8473 24.4404C18.8473 21.0653 21.5112 18.3109 24.7755 18.3109C28.0397 18.3109 30.7036 21.0653 30.7036 24.4404C30.7036 27.8156 28.0397 30.57 24.7755 30.57ZM34.2703 12.4251C33.0918 12.4251 32.14 13.4092 32.14 14.6277C32.14 15.8463 33.0918 16.8303 34.2703 16.8303C35.4488 16.8303 36.4005 15.8509 36.4005 14.6277C36.4008 14.3384 36.346 14.0518 36.239 13.7844C36.1321 13.517 35.9752 13.2741 35.7773 13.0695C35.5795 12.8649 35.3445 12.7026 35.0859 12.5921C34.8273 12.4815 34.5501 12.4248 34.2703 12.4251ZM42.5554 24.4404C42.5554 21.9022 42.5776 19.3869 42.4398 16.8533C42.3019 13.9104 41.6526 11.2986 39.5713 9.14657C37.4856 6.98997 34.964 6.32322 32.1178 6.18068C29.663 6.03813 27.2303 6.06112 24.7799 6.06112C22.3251 6.06112 19.8924 6.03813 17.442 6.18068C14.5958 6.32322 12.0698 6.99457 9.98851 9.14657C7.90277 11.3032 7.25793 13.9104 7.12006 16.8533C6.9822 19.3915 7.00444 21.9068 7.00444 24.4404C7.00444 26.9741 6.9822 29.494 7.12006 32.0276C7.25793 34.9705 7.90722 37.5823 9.98851 39.7343C12.0743 41.8909 14.5958 42.5577 17.442 42.7002C19.8969 42.8428 22.3295 42.8198 24.7799 42.8198C27.2348 42.8198 29.6674 42.8428 32.1178 42.7002C34.964 42.5577 37.49 41.8863 39.5713 39.7343C41.6571 37.5777 42.3019 34.9705 42.4398 32.0276C42.5821 29.494 42.5554 26.9787 42.5554 24.4404ZM38.6419 35.2832C38.3172 36.1201 37.9259 36.7454 37.2988 37.3892C36.6718 38.0376 36.0714 38.4422 35.262 38.7779C32.9228 39.7389 27.3682 39.5228 24.7755 39.5228C22.1828 39.5228 16.6237 39.7389 14.2845 38.7825C13.4751 38.4468 12.8703 38.0422 12.2477 37.3938C11.6206 36.7454 11.2293 36.1247 10.9046 35.2878C9.97962 32.8645 10.1886 27.1212 10.1886 24.4404C10.1886 21.7597 9.97962 16.0118 10.9046 13.5931C11.2293 12.7562 11.6206 12.1309 12.2477 11.4871C12.8747 10.8433 13.4751 10.4341 14.2845 10.0984C16.6237 9.14197 22.1828 9.35809 24.7755 9.35809C27.3682 9.35809 32.9272 9.14197 35.2664 10.0984C36.0758 10.4341 36.6806 10.8387 37.3033 11.4871C37.9303 12.1355 38.3217 12.7562 38.6463 13.5931C39.5713 16.0118 39.3623 21.7597 39.3623 24.4404C39.3623 27.1212 39.5713 32.8645 38.6419 35.2832Z" fill="white"/>
<defs>
<linearGradient id="paint0_linear_3000_514" x1="24.4537" y1="0.815948" x2="24.4537" y2="49.827" gradientUnits="userSpaceOnUse">
<stop stop-color="#565AD2"/>
<stop offset="0.260417" stop-color="#8D36A5"/>
<stop offset="0.46875" stop-color="#AA3785"/>
<stop offset="0.723958" stop-color="#E35954"/>
<stop offset="1" stop-color="#F9C56E"/>
</linearGradient>
</defs>
</svg>
