<svg width="24" height="24" viewBox="0 0 24 24" fill="none" xmlns="http://www.w3.org/2000/svg">
<path d="M23.8354 12.3971C23.8312 14.6764 23.1515 16.9033 21.8822 18.7964C20.6128 20.6895 18.8108 22.164 16.7038 23.0333C14.5969 23.9027 12.2795 24.1279 10.0445 23.6807C7.80949 23.2335 5.75722 22.1338 4.14699 20.5207C2.53676 18.9075 1.44084 16.8532 0.997702 14.6174C0.554565 12.3816 0.784101 10.0647 1.65731 7.95926C2.53051 5.85387 4.0082 4.05455 5.90365 2.78868C7.7991 1.5228 10.0272 0.847172 12.3065 0.847168C13.8223 0.847165 15.3232 1.14605 16.7233 1.72675C18.1234 2.30744 19.3953 3.15853 20.4661 4.23132C21.5369 5.3041 22.3857 6.57754 22.9638 7.97872C23.542 9.37989 23.8381 10.8813 23.8354 12.3971Z" fill="#D1617A"/>
<path d="M8.18193 6.92127L5.99719 8.7749L17.5537 18.58L19.7384 16.7264L8.18193 6.92127Z" fill="white"/>
<path d="M17.5537 6.92147L5.99719 16.7266L8.18193 18.5802L19.7384 8.7751L17.5537 6.92147Z" fill="white"/>
</svg>
