<svg width="24" height="24" viewBox="0 0 24 24" fill="none" xmlns="http://www.w3.org/2000/svg">
<path d="M23.0572 11.4234C23.0781 13.708 22.4197 15.9473 21.1657 17.857C19.9116 19.7667 18.1185 21.2608 16.0138 22.1495C13.9091 23.0383 11.5878 23.2817 9.34449 22.8488C7.10121 22.416 5.03713 21.3263 3.41424 19.7183C1.79134 18.1102 0.682815 16.0562 0.229364 13.817C-0.224087 11.5778 -0.00201415 9.25437 0.867393 7.14161C1.7368 5.02884 3.21434 3.22204 5.11246 1.95051C7.01058 0.678988 9.2437 9.54576e-05 11.5284 1.00753e-08C14.5678 -0.000126972 17.4844 1.20005 19.6434 3.33938C21.8025 5.47872 23.0294 8.38411 23.0572 11.4234Z" fill="#40AD2E"/>
<path d="M23.0572 11.4234C23.0781 13.708 22.4197 15.9473 21.1657 17.857C19.9116 19.7667 18.1185 21.2608 16.0138 22.1495C13.9091 23.0383 11.5878 23.2817 9.34449 22.8488C7.10121 22.416 5.03713 21.3263 3.41424 19.7183C1.79134 18.1102 0.682815 16.0562 0.229364 13.817C-0.224087 11.5778 -0.00201415 9.25437 0.867393 7.14161C1.7368 5.02884 3.21434 3.22204 5.11246 1.95051C7.01058 0.678988 9.2437 9.54576e-05 11.5284 1.00753e-08C14.5678 -0.000126972 17.4844 1.20005 19.6434 3.33938C21.8025 5.47872 23.0294 8.38411 23.0572 11.4234Z" fill="#40AD2E"/>
<path d="M9.91481 16.4115L4.396 11.7291L6.56943 9.86699L9.91481 12.7054L17.9054 5.92578L20.1001 7.76983L9.91481 16.4115Z" fill="white"/>
</svg>
